<svg width="24" height="24" viewBox="0 0 24 24" fill="none" xmlns="http://www.w3.org/2000/svg">
<path fill-rule="evenodd" clip-rule="evenodd" d="M10.85 21C10.85 21.6351 11.3648 22.15 12 22.15C12.6351 22.15 13.15 21.6351 13.15 21V13.15H21C21.6351 13.15 22.15 12.6351 22.15 12C22.15 11.3648 21.6351 10.85 21 10.85H13.15V2.99998C13.15 2.36485 12.6351 1.84998 12 1.84998C11.3648 1.84998 10.85 2.36485 10.85 2.99998V10.85H2.99998C2.36485 10.85 1.84998 11.3648 1.84998 12C1.84998 12.6351 2.36485 13.15 2.99998 13.15H10.85V21Z" fill="#879AB4"/>
</svg>
