<svg width="25" height="24" viewBox="0 0 25 24" fill="none" xmlns="http://www.w3.org/2000/svg">
<path d="M13.5032 9H19.0032L13.5032 3.5V9ZM6.50317 2H14.5032L20.5032 8V20C20.5032 20.5304 20.2925 21.0391 19.9174 21.4142C19.5423 21.7893 19.0336 22 18.5032 22H6.50317C5.97274 22 5.46403 21.7893 5.08896 21.4142C4.71389 21.0391 4.50317 20.5304 4.50317 20V4C4.50317 2.89 5.39317 2 6.50317 2ZM14.5032 20V19C14.5032 17.67 11.8332 17 10.5032 17C9.17317 17 6.50317 17.67 6.50317 19V20H14.5032ZM10.5032 12C9.97274 12 9.46403 12.2107 9.08896 12.5858C8.71389 12.9609 8.50317 13.4696 8.50317 14C8.50317 14.5304 8.71389 15.0391 9.08896 15.4142C9.46403 15.7893 9.97274 16 10.5032 16C11.0336 16 11.5423 15.7893 11.9174 15.4142C12.2925 15.0391 12.5032 14.5304 12.5032 14C12.5032 13.4696 12.2925 12.9609 11.9174 12.5858C11.5423 12.2107 11.0336 12 10.5032 12Z" fill="#879AB4"/>
</svg>
