<svg width="24" height="24" viewBox="0 0 24 24" fill="none" xmlns="http://www.w3.org/2000/svg">
<path d="M16.1125 1.69958C16.5267 1.69958 16.8625 2.03537 16.8625 2.44958V3.02924L18.2249 3.02924C19.7437 3.02924 20.9749 4.26045 20.9749 5.77924V8.91977L20.9749 19.2571C20.9749 20.7759 19.7437 22.0071 18.2249 22.0071L5.77515 22.0071C4.25637 22.0071 3.02515 20.7759 3.02515 19.2571L3.02515 8.91977L3.02515 5.77923C3.02515 4.26045 4.25636 3.02924 5.77515 3.02924L7.13759 3.02924V2.44958C7.13759 2.03537 7.47338 1.69958 7.88759 1.69958C8.3018 1.69958 8.63759 2.03537 8.63759 2.44958V3.02924L15.3625 3.02924V2.44958C15.3625 2.03537 15.6983 1.69958 16.1125 1.69958ZM15.3625 4.52924L8.63759 4.52924V5.32138C8.63759 5.73559 8.3018 6.07138 7.88759 6.07138C7.47338 6.07138 7.13759 5.73559 7.13759 5.32138V4.52924H5.77515C5.08479 4.52924 4.52515 5.08888 4.52515 5.77923V8.16977L19.4749 8.16977V5.77924C19.4749 5.08888 18.9153 4.52924 18.2249 4.52924L16.8625 4.52924V5.32138C16.8625 5.73559 16.5267 6.07138 16.1125 6.07138C15.6983 6.07138 15.3625 5.73559 15.3625 5.32138V4.52924ZM19.4749 9.66977L4.52515 9.66977L4.52515 19.2571C4.52515 19.9475 5.08479 20.5071 5.77515 20.5071L18.2249 20.5071C18.9153 20.5071 19.4749 19.9475 19.4749 19.2571L19.4749 9.66977ZM7.78475 14.1389C8.52291 14.1389 9.1213 13.5405 9.1213 12.8024C9.1213 12.0642 8.52291 11.4658 7.78475 11.4658C7.0466 11.4658 6.44821 12.0642 6.44821 12.8024C6.44821 13.5405 7.0466 14.1389 7.78475 14.1389ZM13.3365 12.8024C13.3365 13.5405 12.7381 14.1389 12 14.1389C11.2618 14.1389 10.6634 13.5405 10.6634 12.8024C10.6634 12.0642 11.2618 11.4658 12 11.4658C12.7381 11.4658 13.3365 12.0642 13.3365 12.8024ZM16.2153 14.1389C16.9535 14.1389 17.5519 13.5405 17.5519 12.8024C17.5519 12.0642 16.9535 11.4658 16.2153 11.4658C15.4772 11.4658 14.8788 12.0642 14.8788 12.8024C14.8788 13.5405 15.4772 14.1389 16.2153 14.1389ZM9.1213 17.0176C9.1213 17.7558 8.52291 18.3542 7.78475 18.3542C7.0466 18.3542 6.44821 17.7558 6.44821 17.0176C6.44821 16.2795 7.0466 15.6811 7.78475 15.6811C8.52291 15.6811 9.1213 16.2795 9.1213 17.0176ZM12 18.3542C12.7381 18.3542 13.3365 17.7558 13.3365 17.0176C13.3365 16.2795 12.7381 15.6811 12 15.6811C11.2618 15.6811 10.6634 16.2795 10.6634 17.0176C10.6634 17.7558 11.2618 18.3542 12 18.3542Z" fill="#879AB4"/>
</svg>
