<svg width="24" height="24" viewBox="0 0 24 24" fill="none" xmlns="http://www.w3.org/2000/svg">
<path fill-rule="evenodd" clip-rule="evenodd" d="M7.17432 13.2227L10.9553 16.9841C11.3468 17.3736 11.3485 18.0067 10.959 18.3983C10.5694 18.7898 9.93628 18.7914 9.54474 18.4019L4.04473 12.9305C3.85607 12.7428 3.75 12.4876 3.75 12.2215C3.75 11.9554 3.85607 11.7003 4.04473 11.5126L9.54475 6.04112C9.93628 5.65161 10.5694 5.65326 10.959 6.0448C11.3485 6.43633 11.3468 7.0695 10.9553 7.459L7.17193 11.2227L19.25 11.2227C19.8023 11.2227 20.25 11.6704 20.25 12.2227C20.25 12.775 19.8023 13.2227 19.25 13.2227L7.17432 13.2227Z" fill="#879AB4"/>
</svg>
