<svg width="24" height="24" viewBox="0 0 24 24" fill="none" xmlns="http://www.w3.org/2000/svg">
<path fill-rule="evenodd" clip-rule="evenodd" d="M11.0839 14.6062C11.4063 14.3462 11.8781 14.3972 12.1378 14.72L12.7377 15.4659L20.7783 7.15854C21.0664 6.8609 21.5409 6.85345 21.8382 7.14189C22.1354 7.43034 22.1429 7.90545 21.8548 8.20309L13.2241 17.1202C13.0746 17.2747 12.8661 17.3575 12.6515 17.3476C12.4369 17.3378 12.2368 17.2362 12.1021 17.0686L10.9702 15.6614C10.7106 15.3386 10.7615 14.8662 11.0839 14.6062Z" fill="#879AB4"/>
<path fill-rule="evenodd" clip-rule="evenodd" d="M2.23184 12.0586C2.53683 11.7783 3.01097 11.7987 3.29085 12.1041L6.40093 15.4976L14.4823 7.10466C14.7696 6.80627 15.2441 6.79759 15.5421 7.08526C15.8401 7.37293 15.8488 7.84803 15.5615 8.14641L6.92705 17.1137C6.78356 17.2628 6.58496 17.3458 6.37823 17.3433C6.17149 17.3407 5.975 17.2528 5.83521 17.1003L2.18636 13.1189C1.90648 12.8135 1.92684 12.3388 2.23184 12.0586Z" fill="#879AB4"/>
</svg>
