<svg width="24" height="24" viewBox="0 0 24 24" fill="none" xmlns="http://www.w3.org/2000/svg">
<path d="M4.34646 18.9879C3.27498 17.8911 2.74805 16.5885 2.76569 15.0801C2.78332 13.5717 3.34055 12.2817 4.43738 11.2103L11.9483 3.87293C12.7351 3.10426 13.6824 2.7264 14.7901 2.73935C15.8979 2.75229 16.8361 3.1522 17.6047 3.93905C18.3734 4.72591 18.7513 5.6732 18.7383 6.78092C18.7254 7.88865 18.3255 8.82685 17.5386 9.59552L10.743 16.2341C10.2423 16.7232 9.65021 16.9638 8.96672 16.9558C8.28323 16.9478 7.69691 16.6935 7.20776 16.1927C6.7186 15.692 6.47802 15.0999 6.48601 14.4164C6.494 13.7329 6.74836 13.1466 7.24908 12.6574L13.5082 6.543C13.8045 6.25355 14.2793 6.2591 14.5688 6.5554C14.8582 6.85169 14.8527 7.32653 14.5564 7.61598L8.29727 13.7304C8.0946 13.9284 7.99168 14.1629 7.98851 14.434C7.98534 14.705 8.08275 14.9419 8.28074 15.1445C8.47873 15.3472 8.71325 15.4501 8.98429 15.4533C9.25533 15.4565 9.49218 15.3591 9.69486 15.1611L16.4904 8.52254C16.9912 8.03338 17.2455 7.44706 17.2535 6.76357C17.2615 6.08008 17.0209 5.48797 16.5318 4.98724C16.0426 4.48652 15.4563 4.23216 14.7728 4.22417C14.0893 4.21618 13.4972 4.45676 12.9965 4.94592L5.48557 12.2832C4.69871 13.0519 4.29881 13.9901 4.28586 15.0978C4.27291 16.2056 4.65078 17.1529 5.41945 17.9397C6.18812 18.7266 7.12632 19.1265 8.23404 19.1394C9.34177 19.1524 10.2891 18.7745 11.0759 18.0058L18.0503 11.1926C18.3466 10.9032 18.8215 10.9087 19.1109 11.205C19.4004 11.5013 19.3948 11.9761 19.0985 12.2656L12.1241 19.0788C11.0273 20.1503 9.72467 20.6772 8.21627 20.6596C6.70788 20.642 5.41795 20.0847 4.34646 18.9879Z" fill="#879AB4"/>
</svg>
