<svg width="24" height="24" viewBox="0 0 24 24" fill="none" xmlns="http://www.w3.org/2000/svg">
<path d="M2.97504 13.6597C3.38925 13.6597 3.72504 13.9955 3.72504 14.4097V18.2655C3.72504 18.9559 4.28468 19.5155 4.97504 19.5155H19.025C19.7153 19.5155 20.275 18.9559 20.275 18.2655V14.4097C20.275 13.9955 20.6108 13.6597 21.025 13.6597C21.4392 13.6597 21.775 13.9955 21.775 14.4097V18.2655C21.775 19.7843 20.5437 21.0155 19.025 21.0155H4.97504C3.45625 21.0155 2.22504 19.7843 2.22504 18.2655V14.4097C2.22504 13.9955 2.56082 13.6597 2.97504 13.6597Z" fill="#879AB4"/>
<path d="M10.5212 10.1702H8.0332L12 15.1621L15.9669 10.1702H13.4789V4.48444H10.5212V10.1702ZM9.0212 3.98444C9.0212 3.43215 9.46892 2.98444 10.0212 2.98444H13.9789C14.5312 2.98444 14.9789 3.43215 14.9789 3.98444V8.67021H17.0029C17.8398 8.67021 18.3065 9.63707 17.7858 10.2923L12.783 16.588C12.3826 17.0918 11.6175 17.0918 11.2171 16.588L6.21433 10.2923C5.69361 9.63707 6.16025 8.67021 6.99723 8.67021H9.0212V3.98444Z" fill="#879AB4"/>
</svg>
