<svg width="24" height="24" viewBox="0 0 24 24" fill="none" xmlns="http://www.w3.org/2000/svg">
<path fill-rule="evenodd" clip-rule="evenodd" d="M15.0482 3.72175C15.0482 4.11605 14.7285 4.43569 14.3342 4.43569L7.73475 4.43569C7.02448 4.43569 6.44869 5.01148 6.44869 5.72175L6.44869 18.2214C6.44869 18.9316 7.02448 19.5074 7.73475 19.5074H14.3342C14.7285 19.5074 15.0482 19.8271 15.0482 20.2214C15.0482 20.6157 14.7285 20.9353 14.3342 20.9353H7.73475C6.23588 20.9353 5.02081 19.7202 5.02081 18.2214V5.72175C5.02081 4.22288 6.23589 3.00781 7.73475 3.00781H14.3342C14.7285 3.00781 15.0482 3.32745 15.0482 3.72175ZM17.057 11.2578H10.5949C10.2006 11.2578 9.88099 11.5775 9.88099 11.9718C9.88099 12.366 10.2006 12.6857 10.5949 12.6857H17.0553L15.176 14.5553C14.8964 14.8334 14.8953 15.2854 15.1733 15.5649C15.4514 15.8445 15.9035 15.8456 16.183 15.5676L19.2896 12.4771C19.4243 12.3431 19.5 12.1609 19.5 11.9709C19.5 11.7809 19.4243 11.5988 19.2896 11.4648L16.183 8.3743C15.9035 8.09622 15.4514 8.09739 15.1733 8.37693C14.8953 8.65646 14.8964 9.1085 15.176 9.38658L17.057 11.2578Z" fill="#879AB4"/>
</svg>
