<svg width="25" height="24" viewBox="0 0 25 24" fill="none" xmlns="http://www.w3.org/2000/svg">
<path d="M20.1782 20.375L20.8782 19.675L19.0032 17.8V15H18.0032V18.2L20.1782 20.375ZM5.50317 21C4.95317 21 4.48234 20.8042 4.09067 20.4125C3.69901 20.0208 3.50317 19.55 3.50317 19V5C3.50317 4.45 3.69901 3.97917 4.09067 3.5875C4.48234 3.19583 4.95317 3 5.50317 3H19.5032C20.0532 3 20.524 3.19583 20.9157 3.5875C21.3073 3.97917 21.5032 4.45 21.5032 5V11.7C21.1865 11.55 20.8615 11.4208 20.5282 11.3125C20.1948 11.2042 19.8532 11.125 19.5032 11.075V5H5.50317V19H11.5532C11.6032 19.3667 11.6823 19.7167 11.7907 20.05C11.899 20.3833 12.0282 20.7 12.1782 21H5.50317ZM5.50317 18V19V5V11.075V11V18ZM7.50317 17H11.5782C11.6282 16.65 11.7073 16.3083 11.8157 15.975C11.924 15.6417 12.0448 15.3167 12.1782 15H7.50317V17ZM7.50317 13H13.6032C14.1365 12.5 14.7323 12.0833 15.3907 11.75C16.049 11.4167 16.7532 11.1917 17.5032 11.075V11H7.50317V13ZM7.50317 9H17.5032V7H7.50317V9ZM18.5032 23C17.1198 23 15.9407 22.5125 14.9657 21.5375C13.9907 20.5625 13.5032 19.3833 13.5032 18C13.5032 16.6167 13.9907 15.4375 14.9657 14.4625C15.9407 13.4875 17.1198 13 18.5032 13C19.8865 13 21.0657 13.4875 22.0407 14.4625C23.0157 15.4375 23.5032 16.6167 23.5032 18C23.5032 19.3833 23.0157 20.5625 22.0407 21.5375C21.0657 22.5125 19.8865 23 18.5032 23Z" fill="#879AB4"/>
</svg>
