<svg width="25" height="24" viewBox="0 0 25 24" fill="none" xmlns="http://www.w3.org/2000/svg">
<path d="M9.5024 3.22263C9.5024 2.75606 9.82504 2.3515 10.2799 2.24769C11.7621 1.90944 13.2817 1.92079 14.7249 2.2501C15.1798 2.35389 15.5025 2.75846 15.5025 3.22504L15.5025 5.07178C15.5025 5.84158 16.3358 6.3227 17.0025 5.9378L18.6035 5.01345C19.008 4.77993 19.5202 4.85747 19.8374 5.20022C20.3357 5.73857 20.7815 6.33981 21.1627 7.00004C21.5439 7.66024 21.8416 8.34696 22.0587 9.04761C22.197 9.49371 22.008 9.97608 21.6035 10.2096L20.0025 11.134C19.3358 11.5189 19.3358 12.4811 20.0025 12.866L21.6018 13.7894C22.0059 14.0227 22.195 14.5044 22.0574 14.9503C21.621 16.3648 20.871 17.6865 19.837 18.801C19.5196 19.143 19.0079 19.2201 18.6039 18.9869L17.0025 18.0623C16.3358 17.6774 15.5025 18.1585 15.5025 18.9283L15.5025 20.7775C15.5025 21.244 15.1798 21.6486 14.725 21.7524C13.2428 22.0906 11.7232 22.0793 10.2799 21.75C9.82506 21.6462 9.5024 21.2416 9.5024 20.775L9.5024 18.9282C9.5024 18.1584 8.66906 17.6773 8.0024 18.0622L6.40135 18.9866C5.99689 19.2201 5.48466 19.1426 5.16743 18.7998C4.6692 18.2615 4.22337 17.6602 3.8422 17C3.46102 16.3398 3.16325 15.6531 2.94615 14.9524C2.80793 14.5063 2.9969 14.0239 3.40135 13.7904L5.00237 12.8661C5.66904 12.4812 5.66904 11.5189 5.00237 11.134L3.40306 10.2107C2.99899 9.97737 2.80995 9.49565 2.94751 9.04981C3.38395 7.63526 4.1339 6.31361 5.16794 5.1991C5.48527 4.85707 5.99696 4.77994 6.40102 5.01322L8.0024 5.93778C8.66907 6.32268 9.5024 5.84155 9.5024 5.07175L9.5024 3.22263ZM12.5032 15C14.16 15 15.5032 13.6569 15.5032 12C15.5032 10.3432 14.16 9.00003 12.5032 9.00003C10.8463 9.00003 9.50319 10.3432 9.50319 12C9.50319 13.6569 10.8463 15 12.5032 15Z" fill="#879AB4"/>
</svg>
